<svg width="33" height="23" viewBox="0 0 33 23" fill="none" xmlns="http://www.w3.org/2000/svg">
<path d="M31.7827 0H1.56066C1.15057 0 0.913086 0.319418 0.913086 0.708541V16.1437V16.6757V18.952V19.465V22.2736C0.913086 22.6623 1.15057 23 1.56066 23H31.7827C32.1933 23 32.6108 22.6623 32.6108 22.2732V19.4648V19.2214V16.6755V16.4131V0.708541C32.6108 0.319418 32.1933 0 31.7827 0ZM31.125 21.5918H2.39892V20.1837H31.125V21.5918ZM31.125 18.7755H2.39892V17.3673H31.125V18.7755ZM31.125 15.9592H2.39892V1.40816H31.125V15.9592Z" fill="white"/>
<path d="M4.28915 2.56185C4.01155 2.29876 3.51627 2.29876 3.23917 2.56185C3.10024 2.69351 3.021 2.87399 3.021 3.0594C3.021 3.24504 3.10024 3.42552 3.23917 3.55695C3.37784 3.68838 3.56853 3.76348 3.76391 3.76348C3.95979 3.76348 4.15048 3.68838 4.28915 3.55695C4.42808 3.42529 4.50683 3.24504 4.50683 3.0594C4.50683 2.87399 4.42808 2.69328 4.28915 2.56185Z" fill="white"/>
<path d="M29.8472 2.56185C29.5696 2.29876 29.0743 2.29876 28.7972 2.56185C28.6583 2.69351 28.579 2.87399 28.579 3.0594C28.579 3.24504 28.6583 3.42552 28.7972 3.55695C28.9361 3.68838 29.1266 3.76348 29.322 3.76348C29.5178 3.76348 29.7085 3.68838 29.8472 3.55695C29.9861 3.42529 30.0649 3.24504 30.0649 3.0594C30.0649 2.87399 29.9861 2.69328 29.8472 2.56185Z" fill="white"/>
<path d="M4.28915 13.8323C4.01155 13.5695 3.51627 13.5695 3.23917 13.8323C3.10024 13.964 3.021 14.1445 3.021 14.3301C3.021 14.5153 3.10024 14.6965 3.23917 14.8274C3.37809 14.9591 3.56853 15.0342 3.76391 15.0342C3.95979 15.0342 4.15048 14.9591 4.28915 14.8274C4.42808 14.6962 4.50683 14.5153 4.50683 14.3301C4.50683 14.1445 4.42808 13.9638 4.28915 13.8323Z" fill="white"/>
<path d="M29.8472 14.067C29.5696 13.8042 29.0743 13.8042 28.7972 14.067C28.6583 14.1987 28.579 14.3792 28.579 14.5648C28.579 14.75 28.6583 14.9312 28.7972 15.0621C28.9361 15.1938 29.1266 15.2689 29.322 15.2689C29.5178 15.2689 29.7085 15.1938 29.8472 15.0621C29.9861 14.9309 30.0649 14.75 30.0649 14.5648C30.0649 14.3792 29.9861 14.1984 29.8472 14.067Z" fill="white"/>
<path d="M29.3567 4.77963C28.2195 4.77963 27.277 3.89835 27.277 2.8204C27.277 2.69061 27.1488 2.58148 27.0121 2.58148H6.07397C5.93703 2.58148 5.82633 2.69061 5.82633 2.8204C5.82633 3.89835 4.96158 4.77728 3.82442 4.77728C3.68748 4.77728 3.63721 4.8843 3.63721 5.01432V12.1354C3.63721 12.265 3.68748 12.3701 3.82442 12.3701C4.96158 12.3701 5.85654 13.2429 5.85654 14.3206C5.85654 14.4504 5.93703 14.5511 6.07397 14.5511H27.0121C27.149 14.5511 27.2597 14.4502 27.2597 14.3206C27.2597 13.2429 28.2198 12.3682 29.357 12.3682C29.4937 12.368 29.6393 12.265 29.6393 12.1354V5.01432C29.6393 4.8843 29.4937 4.77963 29.3567 4.77963ZM8.01868 10.0729C7.08037 10.0729 6.31963 9.3517 6.31963 8.46244C6.31963 7.57319 7.08037 6.85221 8.01868 6.85221C8.95698 6.85221 9.71773 7.57319 9.71773 8.46244C9.71773 9.3517 8.95698 10.0729 8.01868 10.0729ZM19.8783 10.9859C19.4115 10.4935 18.4955 10.2757 17.7526 10.1766V9.36883C18.2479 8.9607 18.468 8.11134 18.468 7.26433C18.468 5.79538 17.6793 5.40626 16.688 5.40626C15.6967 5.40626 14.8659 5.79538 14.8659 7.26433C14.8659 8.1111 15.2765 8.9607 15.5241 9.36883V10.1766C14.7812 10.2785 13.8768 10.5062 13.4231 11.0302C13.0237 10.2914 12.8068 9.40802 12.8068 8.45728C12.8068 5.86931 14.538 3.77161 16.6637 3.77161C18.789 3.77161 20.5014 5.86931 20.5014 8.45728C20.5011 9.38948 20.2639 10.256 19.8783 10.9859ZM25.3945 10.0729C24.4562 10.0729 23.6954 9.3517 23.6954 8.46244C23.6954 7.57319 24.4562 6.85221 25.3945 6.85221C26.3328 6.85221 27.0935 7.57319 27.0935 8.46244C27.0935 9.3517 26.3328 10.0729 25.3945 10.0729Z" fill="white"/>
</svg>
